# xmcd
#
# Track frame offsets:
#	150
#	19962
#	36937
#	56927
#	87747
#	104772
#	120962
#	133375
#	160082
#	190322
#
# Disc length: 2775 seconds
#
# Revision: 1
# Processed by: cddbd v1.5.1PL0 Copyright (c) Steve Scherf et al.
# Submitted via: CDex 1.50Beta5
#
DISCID=940ad50a
DTITLE=三村奈々恵 - UNIVERSE
DYEAR=1900
DGENRE=
TTITLE0=ヴォラーレ
TTITLE1=Hymn
TTITLE2=Isn't she lovely?
TTITLE3=亡き王女のためのパヴァーヌ
TTITLE4=Bye Bye Brazil
TTITLE5=Sicilienne
TTITLE6=カウンテス・キャスリーン
TTITLE7=Firedance
TTITLE8=ILIJAS
TTITLE9=ユニバース
EXTD=
EXTT0=
EXTT1=
EXTT2=
EXTT3=
EXTT4=
EXTT5=
EXTT6=
EXTT7=
EXTT8=
EXTT9=
PLAYORDER=
